name rise42.5664peak47.7979fall81.9185.mot
datacolumns 19
datarows 27
range 17.33326700000000 17.37660400000000
endheader
time	ground_force1_vx	ground_force1_vy	ground_force1_vz	ground_force1_px	ground_force1_py	ground_force1_pz	ground_force2_vx	ground_force2_vy	ground_force2_vz	ground_force2_px	ground_force2_py	ground_force2_pz	ground_torque1_x	ground_torque1_y	ground_torque1_z	ground_torque2_x	ground_torque2_y	ground_torque2_z	
17.33326700000000	54.72263000000000	777.51435700000002	47.41401700000000	0.30024900000000	0.00000000000000	0.10239500000000	1.81343800000000	6.76690800000000	0.73866700000000	0.00000000000000	0.00000000000000	0.00000000000000	0.00000000000000	17.00077200000000	0.00000000000000	0.00000000000000	0.15118400000000	0.00000000000000	
17.33493700000000	54.10251100000000	780.37539300000003	47.52671900000000	0.29947400000000	0.00000000000000	0.10233800000000	1.30326600000000	3.46910700000000	0.42547800000000	0.00000000000000	0.00000000000000	0.00000000000000	0.00000000000000	17.08939100000000	0.00000000000000	0.00000000000000	0.11008200000000	0.00000000000000	
17.33660000000000	53.47548600000000	783.05256199999997	47.63787000000000	0.29870900000000	0.00000000000000	0.10228300000000	0.00000000000000	0.00000000000000	0.00000000000000	0.00000000000000	0.00000000000000	0.00000000000000	0.00000000000000	17.17883800000000	0.00000000000000	0.00000000000000	0.00000000000000	0.00000000000000	
17.33827300000000	52.84232700000000	785.54514600000005	47.74725200000000	0.29795100000000	0.00000000000000	0.10222900000000	0.00000000000000	0.00000000000000	0.00000000000000	0.00000000000000	0.00000000000000	0.00000000000000	0.00000000000000	17.26892300000000	0.00000000000000	0.00000000000000	0.00000000000000	0.00000000000000	
17.33993100000000	52.20377000000000	787.85267099999999	47.85458500000000	0.29720000000000	0.00000000000000	0.10217700000000	0.00000000000000	0.00000000000000	0.00000000000000	0.00000000000000	0.00000000000000	0.00000000000000	0.00000000000000	17.35942000000000	0.00000000000000	0.00000000000000	0.00000000000000	0.00000000000000	
17.34159800000000	51.56050900000000	789.97492399999999	47.95953500000000	0.29645400000000	0.00000000000000	0.10212700000000	0.00000000000000	0.00000000000000	0.00000000000000	0.00000000000000	0.00000000000000	0.00000000000000	0.00000000000000	17.45007000000000	0.00000000000000	0.00000000000000	0.00000000000000	0.00000000000000	
17.34327100000000	50.91320100000000	791.91195000000005	48.06171600000000	0.29571300000000	0.00000000000000	0.10207700000000	0.00000000000000	0.00000000000000	0.00000000000000	0.00000000000000	0.00000000000000	0.00000000000000	0.00000000000000	17.54058700000000	0.00000000000000	0.00000000000000	0.00000000000000	0.00000000000000	
17.34493400000000	50.26246900000000	793.66405899999995	48.16069500000000	0.29497500000000	0.00000000000000	0.10203000000000	0.00000000000000	0.00000000000000	0.00000000000000	0.00000000000000	0.00000000000000	0.00000000000000	0.00000000000000	17.63066000000000	0.00000000000000	0.00000000000000	0.00000000000000	0.00000000000000	
17.34660400000000	49.60890000000000	795.23182999999995	48.25600000000000	0.29423900000000	0.00000000000000	0.10198300000000	0.00000000000000	0.00000000000000	0.00000000000000	0.00000000000000	0.00000000000000	0.00000000000000	0.00000000000000	17.71995400000000	0.00000000000000	0.00000000000000	0.00000000000000	0.00000000000000	
17.34827100000000	48.95305300000000	796.61611300000004	48.34712500000000	0.29350300000000	0.00000000000000	0.10193900000000	0.00000000000000	0.00000000000000	0.00000000000000	0.00000000000000	0.00000000000000	0.00000000000000	0.00000000000000	17.80811600000000	0.00000000000000	0.00000000000000	0.00000000000000	0.00000000000000	
17.34993600000000	48.29545200000000	797.81802900000002	48.43353500000000	0.29276600000000	0.00000000000000	0.10189500000000	0.00000000000000	0.00000000000000	0.00000000000000	0.00000000000000	0.00000000000000	0.00000000000000	0.00000000000000	17.89477700000000	0.00000000000000	0.00000000000000	0.00000000000000	0.00000000000000	
17.35160400000000	47.63659600000000	798.83897300000001	48.51467300000000	0.29202700000000	0.00000000000000	0.10185300000000	0.00000000000000	0.00000000000000	0.00000000000000	0.00000000000000	0.00000000000000	0.00000000000000	0.00000000000000	17.97955400000000	0.00000000000000	0.00000000000000	0.00000000000000	0.00000000000000	
17.35327000000000	46.97695900000000	799.68061299999999	48.58996600000000	0.29128400000000	0.00000000000000	0.10181200000000	0.00000000000000	0.00000000000000	0.00000000000000	0.00000000000000	0.00000000000000	0.00000000000000	0.00000000000000	18.06205900000000	0.00000000000000	0.00000000000000	0.00000000000000	0.00000000000000	
17.35492900000000	46.31698800000000	800.34489099999996	48.65883200000000	0.29053600000000	0.00000000000000	0.10177200000000	0.00000000000000	0.00000000000000	0.00000000000000	0.00000000000000	0.00000000000000	0.00000000000000	0.00000000000000	18.14189500000000	0.00000000000000	0.00000000000000	0.00000000000000	0.00000000000000	
17.35659600000000	45.65711000000000	800.83401700000002	48.72068100000000	0.28978200000000	0.00000000000000	0.10173300000000	0.00000000000000	0.00000000000000	0.00000000000000	0.00000000000000	0.00000000000000	0.00000000000000	0.00000000000000	18.21866400000000	0.00000000000000	0.00000000000000	0.00000000000000	0.00000000000000	
17.35826400000000	44.99773200000000	801.15047300000003	48.77493000000000	0.28902100000000	0.00000000000000	0.10169600000000	0.00000000000000	0.00000000000000	0.00000000000000	0.00000000000000	0.00000000000000	0.00000000000000	0.00000000000000	18.29197000000000	0.00000000000000	0.00000000000000	0.00000000000000	0.00000000000000	
17.35993000000000	44.33924300000000	801.29700400000002	48.82099800000000	0.28825100000000	0.00000000000000	0.10165900000000	0.00000000000000	0.00000000000000	0.00000000000000	0.00000000000000	0.00000000000000	0.00000000000000	0.00000000000000	18.36142100000000	0.00000000000000	0.00000000000000	0.00000000000000	0.00000000000000	
17.36160400000000	43.68201800000000	801.27661599999999	48.85832200000000	0.28747200000000	0.00000000000000	0.10162400000000	0.00000000000000	0.00000000000000	0.00000000000000	0.00000000000000	0.00000000000000	0.00000000000000	0.00000000000000	18.42663400000000	0.00000000000000	0.00000000000000	0.00000000000000	0.00000000000000	
17.36326200000000	43.02641400000000	801.09257200000002	48.88635300000000	0.28668200000000	0.00000000000000	0.10158900000000	0.00000000000000	0.00000000000000	0.00000000000000	0.00000000000000	0.00000000000000	0.00000000000000	0.00000000000000	18.48723400000000	0.00000000000000	0.00000000000000	0.00000000000000	0.00000000000000	
17.36492900000000	42.37278100000000	800.74838799999998	48.90456700000000	0.28587900000000	0.00000000000000	0.10155600000000	0.00000000000000	0.00000000000000	0.00000000000000	0.00000000000000	0.00000000000000	0.00000000000000	0.00000000000000	18.54286200000000	0.00000000000000	0.00000000000000	0.00000000000000	0.00000000000000	
17.36660100000000	41.72145400000000	800.24782000000005	48.91246800000000	0.28506500000000	0.00000000000000	0.10152300000000	0.00000000000000	0.00000000000000	0.00000000000000	0.00000000000000	0.00000000000000	0.00000000000000	0.00000000000000	18.59317600000000	0.00000000000000	0.00000000000000	0.00000000000000	0.00000000000000	
17.36826700000000	41.07276100000000	799.59486600000002	48.90959100000000	0.28423600000000	0.00000000000000	0.10149100000000	0.00000000000000	0.00000000000000	0.00000000000000	0.00000000000000	0.00000000000000	0.00000000000000	0.00000000000000	18.63785200000000	0.00000000000000	0.00000000000000	0.00000000000000	0.00000000000000	
17.36993100000000	40.42702500000000	798.79375000000005	48.89551000000000	0.28339400000000	0.00000000000000	0.10145900000000	0.00000000000000	0.00000000000000	0.00000000000000	0.00000000000000	0.00000000000000	0.00000000000000	0.00000000000000	18.67658900000000	0.00000000000000	0.00000000000000	0.00000000000000	0.00000000000000	
17.37159900000000	39.78456000000000	797.84892100000002	48.86983500000000	0.28253600000000	0.00000000000000	0.10142800000000	0.00000000000000	0.00000000000000	0.00000000000000	0.00000000000000	0.00000000000000	0.00000000000000	0.00000000000000	18.70910800000000	0.00000000000000	0.00000000000000	0.00000000000000	0.00000000000000	
17.37326700000000	39.14567500000000	796.76503800000000	48.83222200000000	0.28166200000000	0.00000000000000	0.10139700000000	0.00000000000000	0.00000000000000	0.00000000000000	0.00000000000000	0.00000000000000	0.00000000000000	0.00000000000000	18.73515600000000	0.00000000000000	0.00000000000000	0.00000000000000	0.00000000000000	
17.37493000000000	38.51067800000000	795.54696400000000	48.78237100000000	0.28077300000000	0.00000000000000	0.10136700000000	0.00000000000000	0.00000000000000	0.00000000000000	0.00000000000000	0.00000000000000	0.00000000000000	0.00000000000000	18.75451100000000	0.00000000000000	0.00000000000000	0.00000000000000	0.00000000000000	
17.37660400000000	37.87987300000000	794.19975499999998	48.72003200000000	0.27986600000000	0.00000000000000	0.10133800000000	0.00000000000000	0.00000000000000	0.00000000000000	0.00000000000000	0.00000000000000	0.00000000000000	0.00000000000000	18.76697500000000	0.00000000000000	0.00000000000000	0.00000000000000	0.00000000000000	
